<svg width="24" height="28" viewBox="0 0 24 28" fill="none" xmlns="http://www.w3.org/2000/svg">
<path d="M8 14H13M8 18H13M8 22H13M17 23H20C20.7957 23 21.5587 22.6839 22.1213 22.1213C22.6839 21.5587 23 20.7957 23 20V6.144C23 4.63067 21.8733 3.34667 20.3653 3.22133C19.8667 3.17998 19.3675 3.14442 18.868 3.11467M18.868 3.11467C18.9565 3.40145 19.0001 3.69988 19 4C19 4.26522 18.8946 4.51957 18.7071 4.70711C18.5196 4.89464 18.2652 5 18 5H12C11.448 5 11 4.552 11 4C11 3.692 11.0467 3.39467 11.1333 3.11467M18.868 3.11467C18.4907 1.89067 17.3493 1 16 1H14C13.359 1.00015 12.7349 1.20553 12.219 1.58605C11.7032 1.96658 11.3227 2.50226 11.1333 3.11467M11.1333 3.11467C10.632 3.14533 10.1333 3.18133 9.63467 3.22133C8.12667 3.34667 7 4.63067 7 6.144V9M7 9H2.5C1.672 9 1 9.672 1 10.5V25.5C1 26.328 1.672 27 2.5 27H15.5C16.328 27 17 26.328 17 25.5V10.5C17 9.672 16.328 9 15.5 9H7ZM5 14H5.01067V14.0107H5V14ZM5 18H5.01067V18.0107H5V18ZM5 22H5.01067V22.0107H5V22Z" stroke="#667085" stroke-width="1.5" stroke-linecap="round" stroke-linejoin="round"/>
</svg>
