<svg width="32" height="32" viewBox="0 0 32 32" fill="none" xmlns="http://www.w3.org/2000/svg">
<path d="M1 13.3337C1 18.836 1.73588 21.7135 3.69918 23.3496C4.69559 24.1799 6.09929 24.7696 8.12348 25.1444C10.1502 25.5198 12.7247 25.667 16 25.667C19.2753 25.667 21.8498 25.5198 23.8765 25.1444C25.9007 24.7696 27.3044 24.1799 28.3008 23.3496C30.2641 21.7135 31 18.836 31 13.3337C31 7.83127 30.2641 4.9538 28.3008 3.31771C27.3044 2.48738 25.9007 1.89776 23.8765 1.52288C21.8498 1.14752 19.2753 1.00033 16 1.00033C12.7247 1.00033 10.1502 1.14752 8.12348 1.52288C6.09929 1.89776 4.69559 2.48738 3.69918 3.31771C1.73588 4.9538 1 7.83127 1 13.3337Z" stroke="#667085" stroke-width="2" stroke-linecap="round" stroke-linejoin="round"/>
<path d="M15.9998 26.667V30.667H10.6665H21.3332" stroke="#667085" stroke-width="2" stroke-linecap="round" stroke-linejoin="round"/>
</svg>
