<svg width="18" height="30" viewBox="0 0 18 30" fill="none" xmlns="http://www.w3.org/2000/svg">
<path d="M7 1H4C3.20435 1 2.44129 1.31607 1.87868 1.87868C1.31607 2.44129 1 3.20435 1 4V26C1 26.7957 1.31607 27.5587 1.87868 28.1213C2.44129 28.6839 3.20435 29 4 29H14C14.7956 29 15.5587 28.6839 16.1213 28.1213C16.6839 27.5587 17 26.7957 17 26V4C17 3.20435 16.6839 2.44129 16.1213 1.87868C15.5587 1.31607 14.7956 1 14 1H11M7 1V3H11V1M7 1H11M7 26H11" stroke="#667085" stroke-width="2" stroke-linecap="round" stroke-linejoin="round"/>
</svg>
